<svg width="228" height="91" viewBox="0 0 228 91" fill="none" xmlns="http://www.w3.org/2000/svg">
<circle cx="44.5" cy="46.5" r="43.5" fill="#214DB6" stroke="white" stroke-width="2"/>
<path d="M64 68V63.3333C64 60.858 62.9991 58.484 61.2175 56.7337C59.4359 54.9833 57.0196 54 54.5 54H35.5C32.9804 54 30.5641 54.9833 28.7825 56.7337C27.0009 58.484 26 60.858 26 63.3333V68" stroke="#F5F5F5" stroke-width="2" stroke-linecap="round" stroke-linejoin="round"/>
<path d="M44.5 44C49.7467 44 54 39.7467 54 34.5C54 29.2533 49.7467 25 44.5 25C39.2533 25 35 29.2533 35 34.5C35 39.7467 39.2533 44 44.5 44Z" stroke="#F5F5F5" stroke-width="2" stroke-linecap="round" stroke-linejoin="round"/>
<circle cx="113.5" cy="46.5" r="43.5" fill="#214DB6" stroke="white" stroke-width="2"/>
<circle cx="183.5" cy="44.5" r="43.5" fill="#214DB6" stroke="white" stroke-width="2"/>
<path d="M134 68V63.3333C134 60.858 132.999 58.484 131.218 56.7337C129.436 54.9833 127.02 54 124.5 54H105.5C102.98 54 100.564 54.9833 98.7825 56.7337C97.0009 58.484 96 60.858 96 63.3333V68" stroke="#F5F5F5" stroke-width="2" stroke-linecap="round" stroke-linejoin="round"/>
<path d="M204 66V61.3333C204 58.858 202.999 56.484 201.218 54.7337C199.436 52.9833 197.02 52 194.5 52H175.5C172.98 52 170.564 52.9833 168.782 54.7337C167.001 56.484 166 58.858 166 61.3333V66" stroke="#F5F5F5" stroke-width="2" stroke-linecap="round" stroke-linejoin="round"/>
<path d="M114.5 44C119.747 44 124 39.7467 124 34.5C124 29.2533 119.747 25 114.5 25C109.253 25 105 29.2533 105 34.5C105 39.7467 109.253 44 114.5 44Z" stroke="#F5F5F5" stroke-width="2" stroke-linecap="round" stroke-linejoin="round"/>
<path d="M184.5 42C189.747 42 194 37.7467 194 32.5C194 27.2533 189.747 23 184.5 23C179.253 23 175 27.2533 175 32.5C175 37.7467 179.253 42 184.5 42Z" stroke="#F5F5F5" stroke-width="2" stroke-linecap="round" stroke-linejoin="round"/>
</svg>
